<svg xmlns="http://www.w3.org/2000/svg" width="1024" height="554" viewBox="0 0 1024 554" role="img" aria-label="Vibe Usage 30-day dashboard: 21.0B tokens, $16255.30, 363h 32m active">
  <defs>
    <linearGradient id="barGrad" x1="0" y1="0" x2="0" y2="1">
      <stop offset="0%" stop-color="#d4d4d8"/>
      <stop offset="100%" stop-color="#52525b"/>
    </linearGradient>
  </defs>
  <rect width="1024" height="554" rx="14" fill="#09090b"/>
  <g font-family="'JetBrains Mono','SF Mono','PingFang SC','Menlo',monospace" text-rendering="geometricPrecision">
    <rect x="16" y="14" width="248" height="26" rx="13" fill="#111113" stroke="#232326"/><text x="41" y="31" font-size="11" text-anchor="middle" fill="#a1a1aa">今天</text><text x="91" y="31" font-size="11" text-anchor="middle" fill="#a1a1aa">24H</text><text x="141" y="31" font-size="11" text-anchor="middle" fill="#a1a1aa">7D</text><rect x="165" y="17" width="52" height="20" rx="10" fill="#fafafa"/><text x="191" y="31" font-size="11" text-anchor="middle" fill="#09090b">30D</text><text x="247" y="31" font-size="11" text-anchor="middle" fill="#a1a1aa">90D</text><text x="303" y="31" font-size="11" text-anchor="middle" fill="#a1a1aa">自定义</text><rect x="274" y="14" width="85" height="26" rx="13" fill="#111113" stroke="#232326"/>
      <text x="316.5" y="31" font-size="11" text-anchor="middle" fill="#a1a1aa">工具 全部 ▾</text><rect x="367" y="14" width="85" height="26" rx="13" fill="#111113" stroke="#232326"/>
      <text x="409.5" y="31" font-size="11" text-anchor="middle" fill="#a1a1aa">模型 全部 ▾</text><rect x="460" y="14" width="85" height="26" rx="13" fill="#111113" stroke="#232326"/>
      <text x="502.5" y="31" font-size="11" text-anchor="middle" fill="#a1a1aa">项目 全部 ▾</text><rect x="553" y="14" width="85" height="26" rx="13" fill="#111113" stroke="#232326"/>
      <text x="595.5" y="31" font-size="11" text-anchor="middle" fill="#a1a1aa">终端 全部 ▾</text>
    
  <g>
    <rect x="16" y="54" width="188" height="86" rx="10" fill="#111113" stroke="#232326"/>
    <text x="32" y="81" font-size="12" fill="#a1a1aa">预估费用</text>
    <text x="190" y="81" font-size="11" fill="#71717a" text-anchor="end">+65.3%</text>
    <text x="32" y="118" font-size="24" font-weight="700" fill="#4ade80">$16255.30</text>
  </g>
  <g>
    <rect x="217" y="54" width="188" height="86" rx="10" fill="#111113" stroke="#232326"/>
    <text x="233" y="81" font-size="12" fill="#a1a1aa">总 Token</text>
    <text x="391" y="81" font-size="11" fill="#71717a" text-anchor="end">+39.0%</text>
    <text x="233" y="118" font-size="24" font-weight="700" fill="#fafafa">21.0B</text>
  </g>
  <g>
    <rect x="418" y="54" width="188" height="86" rx="10" fill="#111113" stroke="#232326"/>
    <text x="434" y="81" font-size="12" fill="#a1a1aa">输入 Token</text>
    <text x="592" y="81" font-size="11" fill="#71717a" text-anchor="end">+2.0%</text>
    <text x="434" y="118" font-size="24" font-weight="700" fill="#fafafa">244.7M</text>
  </g>
  <g>
    <rect x="619" y="54" width="188" height="86" rx="10" fill="#111113" stroke="#232326"/>
    <text x="635" y="81" font-size="12" fill="#a1a1aa">输出 Token</text>
    <text x="793" y="81" font-size="11" fill="#71717a" text-anchor="end">+99.5%</text>
    <text x="635" y="118" font-size="24" font-weight="700" fill="#fafafa">74.1M</text>
  </g>
  <g>
    <rect x="820" y="54" width="188" height="86" rx="10" fill="#111113" stroke="#232326"/>
    <text x="836" y="81" font-size="12" fill="#a1a1aa">缓存 Token</text>
    <text x="994" y="81" font-size="11" fill="#71717a" text-anchor="end">+39.4%</text>
    <text x="836" y="118" font-size="24" font-weight="700" fill="#52525b">20.7B</text>
  </g>
  <g>
    <rect x="16" y="153" width="188" height="86" rx="10" fill="#111113" stroke="#232326"/>
    <text x="32" y="180" font-size="12" fill="#a1a1aa">活跃时长</text>
    <text x="190" y="180" font-size="11" fill="#71717a" text-anchor="end">-61.2%</text>
    <text x="32" y="217" font-size="24" font-weight="700" fill="#60a5fa">363h 32m</text>
  </g>
  <g>
    <rect x="217" y="153" width="188" height="86" rx="10" fill="#111113" stroke="#232326"/>
    <text x="233" y="180" font-size="12" fill="#a1a1aa">总时长</text>
    <text x="391" y="180" font-size="11" fill="#71717a" text-anchor="end">+10.2%</text>
    <text x="233" y="217" font-size="24" font-weight="700" fill="#fafafa">2831h 12m</text>
  </g>
  <g>
    <rect x="418" y="153" width="188" height="86" rx="10" fill="#111113" stroke="#232326"/>
    <text x="434" y="180" font-size="12" fill="#a1a1aa">会话数</text>
    <text x="592" y="180" font-size="11" fill="#71717a" text-anchor="end">+144.0%</text>
    <text x="434" y="217" font-size="24" font-weight="700" fill="#fafafa">1,508</text>
  </g>
  <g>
    <rect x="619" y="153" width="188" height="86" rx="10" fill="#111113" stroke="#232326"/>
    <text x="635" y="180" font-size="12" fill="#a1a1aa">总消息数</text>
    <text x="793" y="180" font-size="11" fill="#71717a" text-anchor="end">-22.7%</text>
    <text x="635" y="217" font-size="24" font-weight="700" fill="#fafafa">414,331</text>
  </g>
  <g>
    <rect x="820" y="153" width="188" height="86" rx="10" fill="#111113" stroke="#232326"/>
    <text x="836" y="180" font-size="12" fill="#a1a1aa">用户消息数</text>
    <text x="994" y="180" font-size="11" fill="#71717a" text-anchor="end">+224.0%</text>
    <text x="836" y="217" font-size="24" font-weight="700" fill="#fafafa">57,541</text>
  </g>
    
  <g>
    <rect x="16" y="252" width="489.5" height="286" rx="12" fill="#0d0d0f" stroke="#232326"/>
    <text x="34" y="282" font-size="13" fill="#e4e4e7">📈 每日趋势</text>
    <g font-size="10" fill="#71717a">
      <circle cx="287.5" cy="278" r="4" fill="#fafafa"/><text x="295.5" y="282">输出</text>
      <circle cx="327.5" cy="278" r="4" fill="#52525b"/><text x="335.5" y="282">输入</text>
      <circle cx="367.5" cy="278" r="4" fill="#3f3f46"/><text x="375.5" y="282">缓存</text>
    </g>
    <rect x="405.5" y="267" width="84" height="22" rx="11" fill="#111113" stroke="#232326"/>
    <rect x="407.5" y="269" width="34" height="18" rx="9" fill="#fafafa"/>
    <text x="424.5" y="282" font-size="10" text-anchor="middle" fill="#09090b">Token</text>
    <text x="457.5" y="282" font-size="10" text-anchor="middle" fill="#71717a">费用</text>
    <text x="56" y="324" font-size="10" fill="#52525b" text-anchor="end">4.0B</text>
    <text x="56" y="492" font-size="10" fill="#52525b" text-anchor="end">0</text>
    <line x1="68" y1="492.5" x2="485.5" y2="492.5" stroke="#232326"/>
    <rect x="70.36583333333333" y="465.0047525474498" width="9.185" height="26.995247452550196" rx="3" fill="url(#barGrad)"/><rect x="84.2825" y="490" width="9.185" height="2" rx="3" fill="url(#barGrad)"/><rect x="98.19916666666666" y="490" width="9.185" height="2" rx="3" fill="url(#barGrad)"/><rect x="112.11583333333333" y="486.914711196263" width="9.185" height="5.085288803737023" rx="3" fill="url(#barGrad)"/><rect x="126.0325" y="490" width="9.185" height="2" rx="3" fill="url(#barGrad)"/><rect x="139.94916666666666" y="463.0549237762209" width="9.185" height="28.945076223779118" rx="3" fill="url(#barGrad)"/><rect x="153.8658333333333" y="464.7367057755201" width="9.185" height="27.263294224479914" rx="3" fill="url(#barGrad)"/><rect x="167.7825" y="464.9711288335514" width="9.185" height="27.028871166448592" rx="3" fill="url(#barGrad)"/><rect x="181.69916666666666" y="463.4740079148469" width="9.185" height="28.52599208515312" rx="3" fill="url(#barGrad)"/><rect x="195.6158333333333" y="396.6735266583512" width="9.185" height="95.3264733416488" rx="3" fill="url(#barGrad)"/><rect x="209.5325" y="471.37349912850414" width="9.185" height="20.62650087149588" rx="3" fill="url(#barGrad)"/><rect x="223.44916666666666" y="485.3047913050753" width="9.185" height="6.695208694924717" rx="3" fill="url(#barGrad)"/><rect x="237.3658333333333" y="459.04334273878334" width="9.185" height="32.95665726121665" rx="3" fill="url(#barGrad)"/><rect x="251.2825" y="472.8859053640747" width="9.185" height="19.114094635925298" rx="3" fill="url(#barGrad)"/><rect x="265.19916666666666" y="469.39608895909083" width="9.185" height="22.60391104090919" rx="3" fill="url(#barGrad)"/><rect x="279.11583333333334" y="435.46434281816227" width="9.185" height="56.535657181837756" rx="3" fill="url(#barGrad)"/><rect x="293.0325" y="473.1550692207198" width="9.185" height="18.844930779280244" rx="3" fill="url(#barGrad)"/><rect x="306.94916666666666" y="475.7138683593455" width="9.185" height="16.286131640654485" rx="3" fill="url(#barGrad)"/><rect x="320.86583333333334" y="427.08821627065623" width="9.185" height="64.91178372934377" rx="3" fill="url(#barGrad)"/><rect x="334.7825" y="464.1349533799979" width="9.185" height="27.865046620002108" rx="3" fill="url(#barGrad)"/><rect x="348.69916666666666" y="441.2228335977791" width="9.185" height="50.77716640222092" rx="3" fill="url(#barGrad)"/><rect x="362.61583333333334" y="450.5023643744192" width="9.185" height="41.497635625580834" rx="3" fill="url(#barGrad)"/><rect x="376.5325" y="469.1890279178037" width="9.185" height="22.810972082196336" rx="3" fill="url(#barGrad)"/><rect x="390.44916666666666" y="460.54029469804334" width="9.185" height="31.45970530195664" rx="3" fill="url(#barGrad)"/><rect x="404.36583333333334" y="479.20848923530207" width="9.185" height="12.79151076469792" rx="3" fill="url(#barGrad)"/><rect x="418.2825" y="486.9895829353362" width="9.185" height="5.010417064663811" rx="3" fill="url(#barGrad)"/><rect x="432.19916666666666" y="454.6284287927717" width="9.185" height="37.37157120722832" rx="3" fill="url(#barGrad)"/><rect x="446.11583333333334" y="479.5956547689351" width="9.185" height="12.404345231064907" rx="3" fill="url(#barGrad)"/><rect x="460.0325" y="316" width="9.185" height="176" rx="3" fill="url(#barGrad)"/><rect x="473.94916666666666" y="490" width="9.185" height="2" rx="3" fill="url(#barGrad)"/>
    <text x="74.95833333333333" y="520" font-size="10" fill="#71717a" text-anchor="middle">6/17</text><text x="144.54166666666666" y="520" font-size="10" fill="#71717a" text-anchor="middle">6/22</text><text x="214.125" y="520" font-size="10" fill="#71717a" text-anchor="middle">6/27</text><text x="283.7083333333333" y="520" font-size="10" fill="#71717a" text-anchor="middle">7/2</text><text x="353.29166666666663" y="520" font-size="10" fill="#71717a" text-anchor="middle">7/7</text><text x="422.875" y="520" font-size="10" fill="#71717a" text-anchor="middle">7/12</text><text x="478.54166666666663" y="520" font-size="10" fill="#71717a" text-anchor="middle">7/16</text>
  </g>
    
  <g>
    <rect x="518.5" y="252" width="489.5" height="286" rx="12" fill="#0d0d0f" stroke="#232326"/>
    <text x="536.5" y="282" font-size="13" fill="#e4e4e7">🗓 分时活跃</text>
    <rect x="908" y="267" width="84" height="22" rx="11" fill="#111113" stroke="#232326"/>
    <rect x="910" y="269" width="34" height="18" rx="9" fill="#fafafa"/>
    <text x="927" y="282" font-size="10" text-anchor="middle" fill="#09090b">Token</text>
    <text x="960" y="282" font-size="10" text-anchor="middle" fill="#71717a">费用</text>
    <text x="560.5" y="320.984375" font-size="10" fill="#71717a" text-anchor="end">周日</text><text x="560.5" y="338.6302083333333" font-size="10" fill="#71717a" text-anchor="end">周一</text><text x="560.5" y="356.2760416666667" font-size="10" fill="#71717a" text-anchor="end">周二</text><text x="560.5" y="373.921875" font-size="10" fill="#71717a" text-anchor="end">周三</text><text x="560.5" y="391.5677083333333" font-size="10" fill="#71717a" text-anchor="end">周四</text><text x="560.5" y="409.21354166666663" font-size="10" fill="#71717a" text-anchor="end">周五</text><text x="560.5" y="426.859375" font-size="10" fill="#71717a" text-anchor="end">周六</text><rect x="570.5" y="310" width="14.645833333333332" height="14.645833333333332" rx="2.5" fill="#161618"/><rect x="588.1458333333334" y="310" width="14.645833333333332" height="14.645833333333332" rx="2.5" fill="#2a2a2e"/><rect x="605.7916666666666" y="310" width="14.645833333333332" height="14.645833333333332" rx="2.5" fill="#161618"/><rect x="623.4375" y="310" width="14.645833333333332" height="14.645833333333332" rx="2.5" fill="#161618"/><rect x="641.0833333333334" y="310" width="14.645833333333332" height="14.645833333333332" rx="2.5" fill="#161618"/><rect x="658.7291666666666" y="310" width="14.645833333333332" height="14.645833333333332" rx="2.5" fill="#161618"/><rect x="676.375" y="310" width="14.645833333333332" height="14.645833333333332" rx="2.5" fill="#161618"/><rect x="694.0208333333334" y="310" width="14.645833333333332" height="14.645833333333332" rx="2.5" fill="#161618"/><rect x="711.6666666666666" y="310" width="14.645833333333332" height="14.645833333333332" rx="2.5" fill="#161618"/><rect x="729.3125" y="310" width="14.645833333333332" height="14.645833333333332" rx="2.5" fill="#2a2a2e"/><rect x="746.9583333333333" y="310" width="14.645833333333332" height="14.645833333333332" rx="2.5" fill="#2a2a2e"/><rect x="764.6041666666666" y="310" width="14.645833333333332" height="14.645833333333332" rx="2.5" fill="#2a2a2e"/><rect x="782.25" y="310" width="14.645833333333332" height="14.645833333333332" rx="2.5" fill="#2a2a2e"/><rect x="799.8958333333333" y="310" width="14.645833333333332" height="14.645833333333332" rx="2.5" fill="#2a2a2e"/><rect x="817.5416666666666" y="310" width="14.645833333333332" height="14.645833333333332" rx="2.5" fill="#2a2a2e"/><rect x="835.1875" y="310" width="14.645833333333332" height="14.645833333333332" rx="2.5" fill="#2a2a2e"/><rect x="852.8333333333333" y="310" width="14.645833333333332" height="14.645833333333332" rx="2.5" fill="#161618"/><rect x="870.4791666666666" y="310" width="14.645833333333332" height="14.645833333333332" rx="2.5" fill="#2a2a2e"/><rect x="888.125" y="310" width="14.645833333333332" height="14.645833333333332" rx="2.5" fill="#2a2a2e"/><rect x="905.7708333333333" y="310" width="14.645833333333332" height="14.645833333333332" rx="2.5" fill="#2a2a2e"/><rect x="923.4166666666666" y="310" width="14.645833333333332" height="14.645833333333332" rx="2.5" fill="#2a2a2e"/><rect x="941.0625" y="310" width="14.645833333333332" height="14.645833333333332" rx="2.5" fill="#2a2a2e"/><rect x="958.7083333333333" y="310" width="14.645833333333332" height="14.645833333333332" rx="2.5" fill="#2a2a2e"/><rect x="976.3541666666666" y="310" width="14.645833333333332" height="14.645833333333332" rx="2.5" fill="#2a2a2e"/><rect x="570.5" y="327.6458333333333" width="14.645833333333332" height="14.645833333333332" rx="2.5" fill="#2a2a2e"/><rect x="588.1458333333334" y="327.6458333333333" width="14.645833333333332" height="14.645833333333332" rx="2.5" fill="#2a2a2e"/><rect x="605.7916666666666" y="327.6458333333333" width="14.645833333333332" height="14.645833333333332" rx="2.5" fill="#2a2a2e"/><rect x="623.4375" y="327.6458333333333" width="14.645833333333332" height="14.645833333333332" rx="2.5" fill="#2a2a2e"/><rect x="641.0833333333334" y="327.6458333333333" width="14.645833333333332" height="14.645833333333332" rx="2.5" fill="#2a2a2e"/><rect x="658.7291666666666" y="327.6458333333333" width="14.645833333333332" height="14.645833333333332" rx="2.5" fill="#2a2a2e"/><rect x="676.375" y="327.6458333333333" width="14.645833333333332" height="14.645833333333332" rx="2.5" fill="#2a2a2e"/><rect x="694.0208333333334" y="327.6458333333333" width="14.645833333333332" height="14.645833333333332" rx="2.5" fill="#2a2a2e"/><rect x="711.6666666666666" y="327.6458333333333" width="14.645833333333332" height="14.645833333333332" rx="2.5" fill="#161618"/><rect x="729.3125" y="327.6458333333333" width="14.645833333333332" height="14.645833333333332" rx="2.5" fill="#2a2a2e"/><rect x="746.9583333333333" y="327.6458333333333" width="14.645833333333332" height="14.645833333333332" rx="2.5" fill="#2a2a2e"/><rect x="764.6041666666666" y="327.6458333333333" width="14.645833333333332" height="14.645833333333332" rx="2.5" fill="#2a2a2e"/><rect x="782.25" y="327.6458333333333" width="14.645833333333332" height="14.645833333333332" rx="2.5" fill="#2a2a2e"/><rect x="799.8958333333333" y="327.6458333333333" width="14.645833333333332" height="14.645833333333332" rx="2.5" fill="#2a2a2e"/><rect x="817.5416666666666" y="327.6458333333333" width="14.645833333333332" height="14.645833333333332" rx="2.5" fill="#2a2a2e"/><rect x="835.1875" y="327.6458333333333" width="14.645833333333332" height="14.645833333333332" rx="2.5" fill="#2a2a2e"/><rect x="852.8333333333333" y="327.6458333333333" width="14.645833333333332" height="14.645833333333332" rx="2.5" fill="#2a2a2e"/><rect x="870.4791666666666" y="327.6458333333333" width="14.645833333333332" height="14.645833333333332" rx="2.5" fill="#2a2a2e"/><rect x="888.125" y="327.6458333333333" width="14.645833333333332" height="14.645833333333332" rx="2.5" fill="#2a2a2e"/><rect x="905.7708333333333" y="327.6458333333333" width="14.645833333333332" height="14.645833333333332" rx="2.5" fill="#2a2a2e"/><rect x="923.4166666666666" y="327.6458333333333" width="14.645833333333332" height="14.645833333333332" rx="2.5" fill="#2a2a2e"/><rect x="941.0625" y="327.6458333333333" width="14.645833333333332" height="14.645833333333332" rx="2.5" fill="#2a2a2e"/><rect x="958.7083333333333" y="327.6458333333333" width="14.645833333333332" height="14.645833333333332" rx="2.5" fill="#2a2a2e"/><rect x="976.3541666666666" y="327.6458333333333" width="14.645833333333332" height="14.645833333333332" rx="2.5" fill="#2a2a2e"/><rect x="570.5" y="345.2916666666667" width="14.645833333333332" height="14.645833333333332" rx="2.5" fill="#2a2a2e"/><rect x="588.1458333333334" y="345.2916666666667" width="14.645833333333332" height="14.645833333333332" rx="2.5" fill="#2a2a2e"/><rect x="605.7916666666666" y="345.2916666666667" width="14.645833333333332" height="14.645833333333332" rx="2.5" fill="#2a2a2e"/><rect x="623.4375" y="345.2916666666667" width="14.645833333333332" height="14.645833333333332" rx="2.5" fill="#2a2a2e"/><rect x="641.0833333333334" y="345.2916666666667" width="14.645833333333332" height="14.645833333333332" rx="2.5" fill="#2a2a2e"/><rect x="658.7291666666666" y="345.2916666666667" width="14.645833333333332" height="14.645833333333332" rx="2.5" fill="#161618"/><rect x="676.375" y="345.2916666666667" width="14.645833333333332" height="14.645833333333332" rx="2.5" fill="#2a2a2e"/><rect x="694.0208333333334" y="345.2916666666667" width="14.645833333333332" height="14.645833333333332" rx="2.5" fill="#161618"/><rect x="711.6666666666666" y="345.2916666666667" width="14.645833333333332" height="14.645833333333332" rx="2.5" fill="#161618"/><rect x="729.3125" y="345.2916666666667" width="14.645833333333332" height="14.645833333333332" rx="2.5" fill="#2a2a2e"/><rect x="746.9583333333333" y="345.2916666666667" width="14.645833333333332" height="14.645833333333332" rx="2.5" fill="#2a2a2e"/><rect x="764.6041666666666" y="345.2916666666667" width="14.645833333333332" height="14.645833333333332" rx="2.5" fill="#2a2a2e"/><rect x="782.25" y="345.2916666666667" width="14.645833333333332" height="14.645833333333332" rx="2.5" fill="#2a2a2e"/><rect x="799.8958333333333" y="345.2916666666667" width="14.645833333333332" height="14.645833333333332" rx="2.5" fill="#2a2a2e"/><rect x="817.5416666666666" y="345.2916666666667" width="14.645833333333332" height="14.645833333333332" rx="2.5" fill="#2a2a2e"/><rect x="835.1875" y="345.2916666666667" width="14.645833333333332" height="14.645833333333332" rx="2.5" fill="#2a2a2e"/><rect x="852.8333333333333" y="345.2916666666667" width="14.645833333333332" height="14.645833333333332" rx="2.5" fill="#2a2a2e"/><rect x="870.4791666666666" y="345.2916666666667" width="14.645833333333332" height="14.645833333333332" rx="2.5" fill="#2a2a2e"/><rect x="888.125" y="345.2916666666667" width="14.645833333333332" height="14.645833333333332" rx="2.5" fill="#2a2a2e"/><rect x="905.7708333333333" y="345.2916666666667" width="14.645833333333332" height="14.645833333333332" rx="2.5" fill="#2a2a2e"/><rect x="923.4166666666666" y="345.2916666666667" width="14.645833333333332" height="14.645833333333332" rx="2.5" fill="#2a2a2e"/><rect x="941.0625" y="345.2916666666667" width="14.645833333333332" height="14.645833333333332" rx="2.5" fill="#2a2a2e"/><rect x="958.7083333333333" y="345.2916666666667" width="14.645833333333332" height="14.645833333333332" rx="2.5" fill="#2a2a2e"/><rect x="976.3541666666666" y="345.2916666666667" width="14.645833333333332" height="14.645833333333332" rx="2.5" fill="#2a2a2e"/><rect x="570.5" y="362.9375" width="14.645833333333332" height="14.645833333333332" rx="2.5" fill="#2a2a2e"/><rect x="588.1458333333334" y="362.9375" width="14.645833333333332" height="14.645833333333332" rx="2.5" fill="#2a2a2e"/><rect x="605.7916666666666" y="362.9375" width="14.645833333333332" height="14.645833333333332" rx="2.5" fill="#2a2a2e"/><rect x="623.4375" y="362.9375" width="14.645833333333332" height="14.645833333333332" rx="2.5" fill="#2a2a2e"/><rect x="641.0833333333334" y="362.9375" width="14.645833333333332" height="14.645833333333332" rx="2.5" fill="#161618"/><rect x="658.7291666666666" y="362.9375" width="14.645833333333332" height="14.645833333333332" rx="2.5" fill="#161618"/><rect x="676.375" y="362.9375" width="14.645833333333332" height="14.645833333333332" rx="2.5" fill="#161618"/><rect x="694.0208333333334" y="362.9375" width="14.645833333333332" height="14.645833333333332" rx="2.5" fill="#161618"/><rect x="711.6666666666666" y="362.9375" width="14.645833333333332" height="14.645833333333332" rx="2.5" fill="#2a2a2e"/><rect x="729.3125" y="362.9375" width="14.645833333333332" height="14.645833333333332" rx="2.5" fill="#2a2a2e"/><rect x="746.9583333333333" y="362.9375" width="14.645833333333332" height="14.645833333333332" rx="2.5" fill="#4b4b52"/><rect x="764.6041666666666" y="362.9375" width="14.645833333333332" height="14.645833333333332" rx="2.5" fill="#a8a8b0"/><rect x="782.25" y="362.9375" width="14.645833333333332" height="14.645833333333332" rx="2.5" fill="#a8a8b0"/><rect x="799.8958333333333" y="362.9375" width="14.645833333333332" height="14.645833333333332" rx="2.5" fill="#4b4b52"/><rect x="817.5416666666666" y="362.9375" width="14.645833333333332" height="14.645833333333332" rx="2.5" fill="#75757e"/><rect x="835.1875" y="362.9375" width="14.645833333333332" height="14.645833333333332" rx="2.5" fill="#a8a8b0"/><rect x="852.8333333333333" y="362.9375" width="14.645833333333332" height="14.645833333333332" rx="2.5" fill="#75757e"/><rect x="870.4791666666666" y="362.9375" width="14.645833333333332" height="14.645833333333332" rx="2.5" fill="#a8a8b0"/><rect x="888.125" y="362.9375" width="14.645833333333332" height="14.645833333333332" rx="2.5" fill="#4b4b52"/><rect x="905.7708333333333" y="362.9375" width="14.645833333333332" height="14.645833333333332" rx="2.5" fill="#4b4b52"/><rect x="923.4166666666666" y="362.9375" width="14.645833333333332" height="14.645833333333332" rx="2.5" fill="#75757e"/><rect x="941.0625" y="362.9375" width="14.645833333333332" height="14.645833333333332" rx="2.5" fill="#a8a8b0"/><rect x="958.7083333333333" y="362.9375" width="14.645833333333332" height="14.645833333333332" rx="2.5" fill="#4b4b52"/><rect x="976.3541666666666" y="362.9375" width="14.645833333333332" height="14.645833333333332" rx="2.5" fill="#e8e8ec"/><rect x="570.5" y="380.5833333333333" width="14.645833333333332" height="14.645833333333332" rx="2.5" fill="#4b4b52"/><rect x="588.1458333333334" y="380.5833333333333" width="14.645833333333332" height="14.645833333333332" rx="2.5" fill="#75757e"/><rect x="605.7916666666666" y="380.5833333333333" width="14.645833333333332" height="14.645833333333332" rx="2.5" fill="#4b4b52"/><rect x="623.4375" y="380.5833333333333" width="14.645833333333332" height="14.645833333333332" rx="2.5" fill="#2a2a2e"/><rect x="641.0833333333334" y="380.5833333333333" width="14.645833333333332" height="14.645833333333332" rx="2.5" fill="#161618"/><rect x="658.7291666666666" y="380.5833333333333" width="14.645833333333332" height="14.645833333333332" rx="2.5" fill="#161618"/><rect x="676.375" y="380.5833333333333" width="14.645833333333332" height="14.645833333333332" rx="2.5" fill="#2a2a2e"/><rect x="694.0208333333334" y="380.5833333333333" width="14.645833333333332" height="14.645833333333332" rx="2.5" fill="#2a2a2e"/><rect x="711.6666666666666" y="380.5833333333333" width="14.645833333333332" height="14.645833333333332" rx="2.5" fill="#161618"/><rect x="729.3125" y="380.5833333333333" width="14.645833333333332" height="14.645833333333332" rx="2.5" fill="#2a2a2e"/><rect x="746.9583333333333" y="380.5833333333333" width="14.645833333333332" height="14.645833333333332" rx="2.5" fill="#2a2a2e"/><rect x="764.6041666666666" y="380.5833333333333" width="14.645833333333332" height="14.645833333333332" rx="2.5" fill="#4b4b52"/><rect x="782.25" y="380.5833333333333" width="14.645833333333332" height="14.645833333333332" rx="2.5" fill="#2a2a2e"/><rect x="799.8958333333333" y="380.5833333333333" width="14.645833333333332" height="14.645833333333332" rx="2.5" fill="#2a2a2e"/><rect x="817.5416666666666" y="380.5833333333333" width="14.645833333333332" height="14.645833333333332" rx="2.5" fill="#2a2a2e"/><rect x="835.1875" y="380.5833333333333" width="14.645833333333332" height="14.645833333333332" rx="2.5" fill="#4b4b52"/><rect x="852.8333333333333" y="380.5833333333333" width="14.645833333333332" height="14.645833333333332" rx="2.5" fill="#2a2a2e"/><rect x="870.4791666666666" y="380.5833333333333" width="14.645833333333332" height="14.645833333333332" rx="2.5" fill="#2a2a2e"/><rect x="888.125" y="380.5833333333333" width="14.645833333333332" height="14.645833333333332" rx="2.5" fill="#2a2a2e"/><rect x="905.7708333333333" y="380.5833333333333" width="14.645833333333332" height="14.645833333333332" rx="2.5" fill="#161618"/><rect x="923.4166666666666" y="380.5833333333333" width="14.645833333333332" height="14.645833333333332" rx="2.5" fill="#161618"/><rect x="941.0625" y="380.5833333333333" width="14.645833333333332" height="14.645833333333332" rx="2.5" fill="#2a2a2e"/><rect x="958.7083333333333" y="380.5833333333333" width="14.645833333333332" height="14.645833333333332" rx="2.5" fill="#161618"/><rect x="976.3541666666666" y="380.5833333333333" width="14.645833333333332" height="14.645833333333332" rx="2.5" fill="#2a2a2e"/><rect x="570.5" y="398.22916666666663" width="14.645833333333332" height="14.645833333333332" rx="2.5" fill="#2a2a2e"/><rect x="588.1458333333334" y="398.22916666666663" width="14.645833333333332" height="14.645833333333332" rx="2.5" fill="#2a2a2e"/><rect x="605.7916666666666" y="398.22916666666663" width="14.645833333333332" height="14.645833333333332" rx="2.5" fill="#161618"/><rect x="623.4375" y="398.22916666666663" width="14.645833333333332" height="14.645833333333332" rx="2.5" fill="#4b4b52"/><rect x="641.0833333333334" y="398.22916666666663" width="14.645833333333332" height="14.645833333333332" rx="2.5" fill="#161618"/><rect x="658.7291666666666" y="398.22916666666663" width="14.645833333333332" height="14.645833333333332" rx="2.5" fill="#161618"/><rect x="676.375" y="398.22916666666663" width="14.645833333333332" height="14.645833333333332" rx="2.5" fill="#161618"/><rect x="694.0208333333334" y="398.22916666666663" width="14.645833333333332" height="14.645833333333332" rx="2.5" fill="#161618"/><rect x="711.6666666666666" y="398.22916666666663" width="14.645833333333332" height="14.645833333333332" rx="2.5" fill="#2a2a2e"/><rect x="729.3125" y="398.22916666666663" width="14.645833333333332" height="14.645833333333332" rx="2.5" fill="#2a2a2e"/><rect x="746.9583333333333" y="398.22916666666663" width="14.645833333333332" height="14.645833333333332" rx="2.5" fill="#2a2a2e"/><rect x="764.6041666666666" y="398.22916666666663" width="14.645833333333332" height="14.645833333333332" rx="2.5" fill="#2a2a2e"/><rect x="782.25" y="398.22916666666663" width="14.645833333333332" height="14.645833333333332" rx="2.5" fill="#161618"/><rect x="799.8958333333333" y="398.22916666666663" width="14.645833333333332" height="14.645833333333332" rx="2.5" fill="#2a2a2e"/><rect x="817.5416666666666" y="398.22916666666663" width="14.645833333333332" height="14.645833333333332" rx="2.5" fill="#2a2a2e"/><rect x="835.1875" y="398.22916666666663" width="14.645833333333332" height="14.645833333333332" rx="2.5" fill="#2a2a2e"/><rect x="852.8333333333333" y="398.22916666666663" width="14.645833333333332" height="14.645833333333332" rx="2.5" fill="#161618"/><rect x="870.4791666666666" y="398.22916666666663" width="14.645833333333332" height="14.645833333333332" rx="2.5" fill="#2a2a2e"/><rect x="888.125" y="398.22916666666663" width="14.645833333333332" height="14.645833333333332" rx="2.5" fill="#2a2a2e"/><rect x="905.7708333333333" y="398.22916666666663" width="14.645833333333332" height="14.645833333333332" rx="2.5" fill="#161618"/><rect x="923.4166666666666" y="398.22916666666663" width="14.645833333333332" height="14.645833333333332" rx="2.5" fill="#2a2a2e"/><rect x="941.0625" y="398.22916666666663" width="14.645833333333332" height="14.645833333333332" rx="2.5" fill="#2a2a2e"/><rect x="958.7083333333333" y="398.22916666666663" width="14.645833333333332" height="14.645833333333332" rx="2.5" fill="#161618"/><rect x="976.3541666666666" y="398.22916666666663" width="14.645833333333332" height="14.645833333333332" rx="2.5" fill="#2a2a2e"/><rect x="570.5" y="415.875" width="14.645833333333332" height="14.645833333333332" rx="2.5" fill="#2a2a2e"/><rect x="588.1458333333334" y="415.875" width="14.645833333333332" height="14.645833333333332" rx="2.5" fill="#161618"/><rect x="605.7916666666666" y="415.875" width="14.645833333333332" height="14.645833333333332" rx="2.5" fill="#2a2a2e"/><rect x="623.4375" y="415.875" width="14.645833333333332" height="14.645833333333332" rx="2.5" fill="#161618"/><rect x="641.0833333333334" y="415.875" width="14.645833333333332" height="14.645833333333332" rx="2.5" fill="#161618"/><rect x="658.7291666666666" y="415.875" width="14.645833333333332" height="14.645833333333332" rx="2.5" fill="#161618"/><rect x="676.375" y="415.875" width="14.645833333333332" height="14.645833333333332" rx="2.5" fill="#161618"/><rect x="694.0208333333334" y="415.875" width="14.645833333333332" height="14.645833333333332" rx="2.5" fill="#161618"/><rect x="711.6666666666666" y="415.875" width="14.645833333333332" height="14.645833333333332" rx="2.5" fill="#161618"/><rect x="729.3125" y="415.875" width="14.645833333333332" height="14.645833333333332" rx="2.5" fill="#2a2a2e"/><rect x="746.9583333333333" y="415.875" width="14.645833333333332" height="14.645833333333332" rx="2.5" fill="#2a2a2e"/><rect x="764.6041666666666" y="415.875" width="14.645833333333332" height="14.645833333333332" rx="2.5" fill="#2a2a2e"/><rect x="782.25" y="415.875" width="14.645833333333332" height="14.645833333333332" rx="2.5" fill="#2a2a2e"/><rect x="799.8958333333333" y="415.875" width="14.645833333333332" height="14.645833333333332" rx="2.5" fill="#2a2a2e"/><rect x="817.5416666666666" y="415.875" width="14.645833333333332" height="14.645833333333332" rx="2.5" fill="#2a2a2e"/><rect x="835.1875" y="415.875" width="14.645833333333332" height="14.645833333333332" rx="2.5" fill="#2a2a2e"/><rect x="852.8333333333333" y="415.875" width="14.645833333333332" height="14.645833333333332" rx="2.5" fill="#161618"/><rect x="870.4791666666666" y="415.875" width="14.645833333333332" height="14.645833333333332" rx="2.5" fill="#161618"/><rect x="888.125" y="415.875" width="14.645833333333332" height="14.645833333333332" rx="2.5" fill="#161618"/><rect x="905.7708333333333" y="415.875" width="14.645833333333332" height="14.645833333333332" rx="2.5" fill="#2a2a2e"/><rect x="923.4166666666666" y="415.875" width="14.645833333333332" height="14.645833333333332" rx="2.5" fill="#161618"/><rect x="941.0625" y="415.875" width="14.645833333333332" height="14.645833333333332" rx="2.5" fill="#161618"/><rect x="958.7083333333333" y="415.875" width="14.645833333333332" height="14.645833333333332" rx="2.5" fill="#2a2a2e"/><rect x="976.3541666666666" y="415.875" width="14.645833333333332" height="14.645833333333332" rx="2.5" fill="#161618"/><text x="577.8229166666666" y="449.5208333333333" font-size="10" fill="#71717a" text-anchor="middle">00</text><text x="630.7604166666666" y="449.5208333333333" font-size="10" fill="#71717a" text-anchor="middle">03</text><text x="683.6979166666666" y="449.5208333333333" font-size="10" fill="#71717a" text-anchor="middle">06</text><text x="736.6354166666666" y="449.5208333333333" font-size="10" fill="#71717a" text-anchor="middle">09</text><text x="789.5729166666666" y="449.5208333333333" font-size="10" fill="#71717a" text-anchor="middle">12</text><text x="842.5104166666666" y="449.5208333333333" font-size="10" fill="#71717a" text-anchor="middle">15</text><text x="895.4479166666666" y="449.5208333333333" font-size="10" fill="#71717a" text-anchor="middle">18</text><text x="948.3854166666666" y="449.5208333333333" font-size="10" fill="#71717a" text-anchor="middle">21</text><text x="878" y="522" font-size="10" fill="#71717a">少</text><rect x="892" y="513" width="11" height="11" rx="2.5" fill="#161618"/><rect x="906" y="513" width="11" height="11" rx="2.5" fill="#2a2a2e"/><rect x="920" y="513" width="11" height="11" rx="2.5" fill="#4b4b52"/><rect x="934" y="513" width="11" height="11" rx="2.5" fill="#75757e"/><rect x="948" y="513" width="11" height="11" rx="2.5" fill="#a8a8b0"/><rect x="962" y="513" width="11" height="11" rx="2.5" fill="#e8e8ec"/><text x="980" y="522" font-size="10" fill="#71717a">多</text>
  </g>
    <text x="1004" y="548" font-size="9" fill="#3f3f46" text-anchor="end">更新于 2026/07/16 00:18 UTC+8 · vibecafe.ai/usage</text>
  </g>
</svg>
